<mxfile host="app.diagrams.net" modified="2024-05-16T00:50:30.895Z" agent="Mozilla/5.0 (Windows NT 10.0; Win64; x64) AppleWebKit/537.36 (KHTML, like Gecko) Chrome/124.0.0.0 Safari/537.36" etag="Mc-POWCIgy6qBxSuUfMb" version="24.4.2" type="device">
  <diagram name="Page-1" id="mfnypvU7JTdG7bWMHGOg">
    <mxGraphModel dx="1588" dy="824" grid="1" gridSize="10" guides="1" tooltips="1" connect="1" arrows="1" fold="1" page="1" pageScale="1" pageWidth="827" pageHeight="1169" math="0" shadow="0">
      <root>
        <mxCell id="0" />
        <mxCell id="1" parent="0" />
        <mxCell id="ziVJuGPqp5G7fvDlF5fB-1" value="User" style="swimlane;whiteSpace=wrap;html=1;" vertex="1" parent="1">
          <mxGeometry x="85" y="10" width="200" height="1080" as="geometry" />
        </mxCell>
        <mxCell id="ziVJuGPqp5G7fvDlF5fB-2" value="" style="edgeStyle=orthogonalEdgeStyle;rounded=0;orthogonalLoop=1;jettySize=auto;html=1;" edge="1" parent="ziVJuGPqp5G7fvDlF5fB-1" source="ziVJuGPqp5G7fvDlF5fB-3" target="ziVJuGPqp5G7fvDlF5fB-6">
          <mxGeometry relative="1" as="geometry" />
        </mxCell>
        <mxCell id="ziVJuGPqp5G7fvDlF5fB-3" value="&lt;span data-lucid-content=&quot;{&amp;quot;t&amp;quot;:&amp;quot;User navigates to the sign up page&amp;quot;,&amp;quot;m&amp;quot;:[{&amp;quot;s&amp;quot;:0,&amp;quot;n&amp;quot;:&amp;quot;s&amp;quot;,&amp;quot;v&amp;quot;:22.22222222222222,&amp;quot;e&amp;quot;:34},{&amp;quot;s&amp;quot;:0,&amp;quot;n&amp;quot;:&amp;quot;fsp&amp;quot;,&amp;quot;v&amp;quot;:&amp;quot;ss_presetShapeStyle1_textStyle&amp;quot;,&amp;quot;e&amp;quot;:34},{&amp;quot;s&amp;quot;:0,&amp;quot;n&amp;quot;:&amp;quot;fsp2&amp;quot;,&amp;quot;v&amp;quot;:&amp;quot;ss_presetShapeStyle1_textStyle&amp;quot;,&amp;quot;e&amp;quot;:34}]}&quot; data-lucid-type=&quot;application/vnd.lucid.text&quot;&gt;&lt;span style=&quot;color: rgb(58, 65, 74);&quot;&gt;&lt;font style=&quot;font-size: 12px;&quot;&gt;User navigates to the sign up page&lt;/font&gt;&lt;/span&gt;&lt;/span&gt;" style="rounded=1;whiteSpace=wrap;html=1;" vertex="1" parent="ziVJuGPqp5G7fvDlF5fB-1">
          <mxGeometry x="40" y="150" width="120" height="60" as="geometry" />
        </mxCell>
        <mxCell id="ziVJuGPqp5G7fvDlF5fB-4" value="" style="edgeStyle=orthogonalEdgeStyle;rounded=0;orthogonalLoop=1;jettySize=auto;html=1;" edge="1" parent="ziVJuGPqp5G7fvDlF5fB-1" source="ziVJuGPqp5G7fvDlF5fB-5" target="ziVJuGPqp5G7fvDlF5fB-3">
          <mxGeometry relative="1" as="geometry" />
        </mxCell>
        <mxCell id="ziVJuGPqp5G7fvDlF5fB-5" value="" style="ellipse;whiteSpace=wrap;html=1;aspect=fixed;fillColor=#000000;" vertex="1" parent="ziVJuGPqp5G7fvDlF5fB-1">
          <mxGeometry x="75" y="50" width="50" height="50" as="geometry" />
        </mxCell>
        <mxCell id="ziVJuGPqp5G7fvDlF5fB-6" value="User assigns their details and password" style="rounded=1;whiteSpace=wrap;html=1;" vertex="1" parent="ziVJuGPqp5G7fvDlF5fB-1">
          <mxGeometry x="40" y="270" width="120" height="60" as="geometry" />
        </mxCell>
        <mxCell id="ziVJuGPqp5G7fvDlF5fB-7" value="" style="edgeStyle=orthogonalEdgeStyle;rounded=0;orthogonalLoop=1;jettySize=auto;html=1;" edge="1" parent="ziVJuGPqp5G7fvDlF5fB-1" source="ziVJuGPqp5G7fvDlF5fB-8" target="ziVJuGPqp5G7fvDlF5fB-9">
          <mxGeometry relative="1" as="geometry" />
        </mxCell>
        <mxCell id="ziVJuGPqp5G7fvDlF5fB-8" value="User agrees to terms and services" style="rounded=1;whiteSpace=wrap;html=1;" vertex="1" parent="ziVJuGPqp5G7fvDlF5fB-1">
          <mxGeometry x="40" y="370" width="120" height="60" as="geometry" />
        </mxCell>
        <mxCell id="ziVJuGPqp5G7fvDlF5fB-9" value="User submits Sign Up form" style="rounded=1;whiteSpace=wrap;html=1;" vertex="1" parent="ziVJuGPqp5G7fvDlF5fB-1">
          <mxGeometry x="40" y="490" width="120" height="60" as="geometry" />
        </mxCell>
        <mxCell id="ziVJuGPqp5G7fvDlF5fB-10" value="Program" style="swimlane;whiteSpace=wrap;html=1;" vertex="1" parent="1">
          <mxGeometry x="285" y="10" width="480" height="1080" as="geometry" />
        </mxCell>
        <mxCell id="ziVJuGPqp5G7fvDlF5fB-11" value="" style="edgeStyle=orthogonalEdgeStyle;rounded=0;orthogonalLoop=1;jettySize=auto;html=1;" edge="1" parent="ziVJuGPqp5G7fvDlF5fB-10" source="ziVJuGPqp5G7fvDlF5fB-12" target="ziVJuGPqp5G7fvDlF5fB-13">
          <mxGeometry relative="1" as="geometry" />
        </mxCell>
        <mxCell id="ziVJuGPqp5G7fvDlF5fB-12" value="User details and passwords are verified" style="rounded=1;whiteSpace=wrap;html=1;" vertex="1" parent="ziVJuGPqp5G7fvDlF5fB-10">
          <mxGeometry x="180" y="270" width="120" height="60" as="geometry" />
        </mxCell>
        <mxCell id="ziVJuGPqp5G7fvDlF5fB-13" value="Present terms of service" style="rounded=1;whiteSpace=wrap;html=1;" vertex="1" parent="ziVJuGPqp5G7fvDlF5fB-10">
          <mxGeometry x="180" y="370" width="120" height="60" as="geometry" />
        </mxCell>
        <mxCell id="ziVJuGPqp5G7fvDlF5fB-14" style="edgeStyle=orthogonalEdgeStyle;rounded=0;orthogonalLoop=1;jettySize=auto;html=1;exitX=0.5;exitY=1;exitDx=0;exitDy=0;entryX=0.5;entryY=0;entryDx=0;entryDy=0;" edge="1" parent="ziVJuGPqp5G7fvDlF5fB-10" source="ziVJuGPqp5G7fvDlF5fB-15" target="ziVJuGPqp5G7fvDlF5fB-18">
          <mxGeometry relative="1" as="geometry" />
        </mxCell>
        <mxCell id="ziVJuGPqp5G7fvDlF5fB-15" value="Creates a new user and stores the information" style="rounded=1;whiteSpace=wrap;html=1;" vertex="1" parent="ziVJuGPqp5G7fvDlF5fB-10">
          <mxGeometry x="180" y="490" width="120" height="60" as="geometry" />
        </mxCell>
        <mxCell id="ziVJuGPqp5G7fvDlF5fB-16" style="edgeStyle=orthogonalEdgeStyle;rounded=0;orthogonalLoop=1;jettySize=auto;html=1;exitX=0;exitY=0.5;exitDx=0;exitDy=0;entryX=0.5;entryY=0;entryDx=0;entryDy=0;" edge="1" parent="ziVJuGPqp5G7fvDlF5fB-10" source="ziVJuGPqp5G7fvDlF5fB-18" target="ziVJuGPqp5G7fvDlF5fB-20">
          <mxGeometry relative="1" as="geometry" />
        </mxCell>
        <mxCell id="ziVJuGPqp5G7fvDlF5fB-17" style="edgeStyle=orthogonalEdgeStyle;rounded=0;orthogonalLoop=1;jettySize=auto;html=1;exitX=1;exitY=0.5;exitDx=0;exitDy=0;entryX=0.5;entryY=0;entryDx=0;entryDy=0;" edge="1" parent="ziVJuGPqp5G7fvDlF5fB-10" source="ziVJuGPqp5G7fvDlF5fB-18" target="ziVJuGPqp5G7fvDlF5fB-22">
          <mxGeometry relative="1" as="geometry" />
        </mxCell>
        <mxCell id="ziVJuGPqp5G7fvDlF5fB-18" value="" style="rhombus;whiteSpace=wrap;html=1;" vertex="1" parent="ziVJuGPqp5G7fvDlF5fB-10">
          <mxGeometry x="220" y="590" width="40" height="40" as="geometry" />
        </mxCell>
        <mxCell id="ziVJuGPqp5G7fvDlF5fB-19" value="" style="edgeStyle=orthogonalEdgeStyle;rounded=0;orthogonalLoop=1;jettySize=auto;html=1;" edge="1" parent="ziVJuGPqp5G7fvDlF5fB-10" source="ziVJuGPqp5G7fvDlF5fB-20" target="ziVJuGPqp5G7fvDlF5fB-26">
          <mxGeometry relative="1" as="geometry" />
        </mxCell>
        <mxCell id="ziVJuGPqp5G7fvDlF5fB-20" value="User pressed verification link" style="rounded=1;whiteSpace=wrap;html=1;" vertex="1" parent="ziVJuGPqp5G7fvDlF5fB-10">
          <mxGeometry x="75" y="690" width="120" height="60" as="geometry" />
        </mxCell>
        <mxCell id="ziVJuGPqp5G7fvDlF5fB-21" value="" style="edgeStyle=orthogonalEdgeStyle;rounded=0;orthogonalLoop=1;jettySize=auto;html=1;" edge="1" parent="ziVJuGPqp5G7fvDlF5fB-10" source="ziVJuGPqp5G7fvDlF5fB-22" target="ziVJuGPqp5G7fvDlF5fB-24">
          <mxGeometry relative="1" as="geometry" />
        </mxCell>
        <mxCell id="ziVJuGPqp5G7fvDlF5fB-22" value="User did not press the verification link" style="rounded=1;whiteSpace=wrap;html=1;" vertex="1" parent="ziVJuGPqp5G7fvDlF5fB-10">
          <mxGeometry x="275" y="690" width="120" height="60" as="geometry" />
        </mxCell>
        <mxCell id="ziVJuGPqp5G7fvDlF5fB-23" style="edgeStyle=orthogonalEdgeStyle;rounded=0;orthogonalLoop=1;jettySize=auto;html=1;exitX=0.5;exitY=1;exitDx=0;exitDy=0;entryX=1;entryY=0.5;entryDx=0;entryDy=0;" edge="1" parent="ziVJuGPqp5G7fvDlF5fB-10" source="ziVJuGPqp5G7fvDlF5fB-24" target="ziVJuGPqp5G7fvDlF5fB-28">
          <mxGeometry relative="1" as="geometry" />
        </mxCell>
        <mxCell id="ziVJuGPqp5G7fvDlF5fB-24" value="User Account is suspended" style="rounded=1;whiteSpace=wrap;html=1;" vertex="1" parent="ziVJuGPqp5G7fvDlF5fB-10">
          <mxGeometry x="275" y="800" width="120" height="60" as="geometry" />
        </mxCell>
        <mxCell id="ziVJuGPqp5G7fvDlF5fB-25" style="edgeStyle=orthogonalEdgeStyle;rounded=0;orthogonalLoop=1;jettySize=auto;html=1;exitX=0.5;exitY=1;exitDx=0;exitDy=0;entryX=0;entryY=0.5;entryDx=0;entryDy=0;" edge="1" parent="ziVJuGPqp5G7fvDlF5fB-10" source="ziVJuGPqp5G7fvDlF5fB-26" target="ziVJuGPqp5G7fvDlF5fB-28">
          <mxGeometry relative="1" as="geometry" />
        </mxCell>
        <mxCell id="ziVJuGPqp5G7fvDlF5fB-26" value="User Account is initialised" style="rounded=1;whiteSpace=wrap;html=1;" vertex="1" parent="ziVJuGPqp5G7fvDlF5fB-10">
          <mxGeometry x="75" y="800" width="120" height="60" as="geometry" />
        </mxCell>
        <mxCell id="ziVJuGPqp5G7fvDlF5fB-27" style="edgeStyle=orthogonalEdgeStyle;rounded=0;orthogonalLoop=1;jettySize=auto;html=1;exitX=0.5;exitY=1;exitDx=0;exitDy=0;entryX=0.5;entryY=0;entryDx=0;entryDy=0;" edge="1" parent="ziVJuGPqp5G7fvDlF5fB-10" source="ziVJuGPqp5G7fvDlF5fB-28" target="ziVJuGPqp5G7fvDlF5fB-29">
          <mxGeometry relative="1" as="geometry" />
        </mxCell>
        <mxCell id="ziVJuGPqp5G7fvDlF5fB-28" value="" style="rhombus;whiteSpace=wrap;html=1;" vertex="1" parent="ziVJuGPqp5G7fvDlF5fB-10">
          <mxGeometry x="220" y="890" width="40" height="40" as="geometry" />
        </mxCell>
        <mxCell id="ziVJuGPqp5G7fvDlF5fB-29" value="" style="ellipse;whiteSpace=wrap;html=1;aspect=fixed;fillColor=#000000;" vertex="1" parent="ziVJuGPqp5G7fvDlF5fB-10">
          <mxGeometry x="215" y="1000" width="50" height="50" as="geometry" />
        </mxCell>
        <mxCell id="ziVJuGPqp5G7fvDlF5fB-30" style="edgeStyle=orthogonalEdgeStyle;rounded=0;orthogonalLoop=1;jettySize=auto;html=1;exitX=1;exitY=0.5;exitDx=0;exitDy=0;" edge="1" parent="1" source="ziVJuGPqp5G7fvDlF5fB-6" target="ziVJuGPqp5G7fvDlF5fB-12">
          <mxGeometry relative="1" as="geometry" />
        </mxCell>
        <mxCell id="ziVJuGPqp5G7fvDlF5fB-31" style="edgeStyle=orthogonalEdgeStyle;rounded=0;orthogonalLoop=1;jettySize=auto;html=1;exitX=0;exitY=0.5;exitDx=0;exitDy=0;entryX=1;entryY=0.5;entryDx=0;entryDy=0;" edge="1" parent="1" source="ziVJuGPqp5G7fvDlF5fB-13" target="ziVJuGPqp5G7fvDlF5fB-8">
          <mxGeometry relative="1" as="geometry" />
        </mxCell>
        <mxCell id="ziVJuGPqp5G7fvDlF5fB-32" style="edgeStyle=orthogonalEdgeStyle;rounded=0;orthogonalLoop=1;jettySize=auto;html=1;exitX=1;exitY=0.5;exitDx=0;exitDy=0;" edge="1" parent="1" source="ziVJuGPqp5G7fvDlF5fB-9" target="ziVJuGPqp5G7fvDlF5fB-15">
          <mxGeometry relative="1" as="geometry" />
        </mxCell>
      </root>
    </mxGraphModel>
  </diagram>
</mxfile>
